<?xml version="1.0" standalone="no"?><!DOCTYPE svg PUBLIC "-//W3C//DTD SVG 1.1//EN" "http://www.w3.org/Graphics/SVG/1.1/DTD/svg11.dtd"><svg t="1629126421116" class="icon" viewBox="0 0 1024 1024" version="1.1" xmlns="http://www.w3.org/2000/svg" p-id="5722" xmlns:xlink="http://www.w3.org/1999/xlink" width="200" height="200"><defs><style type="text/css"></style></defs><path d="M640 85.333333a42.666667 42.666667 0 0 1 42.666667 42.666667v85.333333h192a21.333333 21.333333 0 0 1 21.333333 21.333334v21.333333a21.333333 21.333333 0 0 1-21.333333 21.333333h-64v618.666667a42.666667 42.666667 0 0 1-42.666667 42.666667H256a42.666667 42.666667 0 0 1-42.666667-42.666667V277.333333H149.333333a21.333333 21.333333 0 0 1-21.333333-21.333333v-21.333333a21.333333 21.333333 0 0 1 21.333333-21.333334h192V128a42.666667 42.666667 0 0 1 42.666667-42.666667h256z m106.666667 192H277.333333v597.333334h469.333334V277.333333z m-362.666667 128a21.333333 21.333333 0 0 1 21.333333 21.333334v298.666666a21.333333 21.333333 0 0 1-21.333333 21.333334h-21.333333a21.333333 21.333333 0 0 1-21.333334-21.333334V426.666667a21.333333 21.333333 0 0 1 21.333334-21.333334h21.333333z m138.666667 0a21.333333 21.333333 0 0 1 21.333333 21.333334v298.666666a21.333333 21.333333 0 0 1-21.333333 21.333334h-21.333334a21.333333 21.333333 0 0 1-21.333333-21.333334V426.666667a21.333333 21.333333 0 0 1 21.333333-21.333334h21.333334z m138.666666 0a21.333333 21.333333 0 0 1 21.333334 21.333334v298.666666a21.333333 21.333333 0 0 1-21.333334 21.333334h-21.333333a21.333333 21.333333 0 0 1-21.333333-21.333334V426.666667a21.333333 21.333333 0 0 1 21.333333-21.333334h21.333333zM618.666667 149.333333H405.333333v64h213.333334V149.333333z" fill="#2c2c2c" p-id="5723"></path></svg>